<svg width="48" height="48" viewBox="0 0 48 48" fill="none" xmlns="http://www.w3.org/2000/svg">
<path opacity="0.1" d="M24 48C37.2548 48 48 37.2548 48 24C48 10.7452 37.2548 0 24 0C10.7452 0 0 10.7452 0 24C0 37.2548 10.7452 48 24 48Z" fill="#5080ff"/>
<path d="M31.4666 24.5327C32.3153 24.5327 33.1292 24.8698 33.7293 25.4699C34.3294 26.0701 34.6666 26.884 34.6666 27.7327V28.7993C34.6666 33.0047 30.6999 37.3327 23.9999 37.3327C17.2999 37.3327 13.3333 33.0047 13.3333 28.7993V27.7327C13.3333 26.884 13.6704 26.0701 14.2705 25.4699C14.8706 24.8698 15.6846 24.5327 16.5333 24.5327H31.4666ZM31.4666 26.666H16.5333C16.2504 26.666 15.979 26.7784 15.779 26.9784C15.579 27.1785 15.4666 27.4498 15.4666 27.7327V28.7993C15.4666 31.866 18.5213 35.1993 23.9999 35.1993C29.4786 35.1993 32.5333 31.866 32.5333 28.7993V27.7327C32.5333 27.4498 32.4209 27.1785 32.2208 26.9784C32.0208 26.7784 31.7495 26.666 31.4666 26.666ZM23.9999 10.666C25.1602 10.666 26.2945 11.0101 27.2593 11.6547C28.224 12.2994 28.976 13.2156 29.42 14.2876C29.864 15.3596 29.9802 16.5392 29.7539 17.6772C29.5275 18.8152 28.9687 19.8606 28.1483 20.681C27.3278 21.5015 26.2825 22.0603 25.1444 22.2866C24.0064 22.513 22.8268 22.3968 21.7548 21.9528C20.6828 21.5087 19.7666 20.7568 19.122 19.792C18.4773 18.8273 18.1333 17.693 18.1333 16.5327C18.1333 14.9767 18.7513 13.4845 19.8516 12.3843C20.9518 11.2841 22.444 10.666 23.9999 10.666ZM23.9999 12.7993C23.2615 12.7993 22.5397 13.0183 21.9258 13.4285C21.3118 13.8388 20.8333 14.4218 20.5508 15.104C20.2682 15.7862 20.1943 16.5368 20.3383 17.261C20.4824 17.9852 20.8379 18.6504 21.3601 19.1725C21.8822 19.6947 22.5474 20.0502 23.2716 20.1943C23.9958 20.3383 24.7464 20.2644 25.4286 19.9818C26.1108 19.6993 26.6938 19.2208 27.1041 18.6068C27.5143 17.9929 27.7333 17.2711 27.7333 16.5327C27.7333 15.5425 27.3399 14.593 26.6398 13.8928C25.9396 13.1927 24.9901 12.7993 23.9999 12.7993Z" fill="#5080ff"/>
</svg>
